<svg width="185" height="57" viewBox="0 0 185 57" fill="none" xmlns="http://www.w3.org/2000/svg">
<path d="M31.8574 0.969711C33.6313 0.396223 35.4919 0.0215208 37.3729 0.000410867C37.8726 0.00129045 38.3824 -0.0180604 38.8653 0.12883C40.2346 0.480663 41.5266 1.39191 41.988 2.69457C42.3935 3.72544 42.4 4.86538 42.1343 5.92792C41.7727 7.38978 40.9757 8.72235 40.0323 9.9177C39.4637 10.6592 38.5912 11.2019 37.6302 11.3523C37.1035 11.4359 36.5023 11.3488 36.1257 10.9644C35.6587 10.4842 35.6168 9.77697 35.6941 9.16214C35.861 7.93073 36.6822 6.87347 37.646 6.07129C38.2836 5.53474 39.1748 5.41424 39.9969 5.38082C40.1284 5.2911 40.1722 5.12926 40.2253 4.99116C40.4033 4.39217 40.3204 3.68234 39.8683 3.20737C39.4759 2.79572 38.869 2.65059 38.3023 2.63652C37.4978 2.62596 36.7055 2.80804 35.9579 3.07807C33.0692 4.0632 30.5254 5.76783 28.2556 7.69236C26.7045 9.01085 25.256 10.4323 23.8493 11.8871C23.2798 12.4905 22.6786 13.0675 22.1463 13.7017C17.8929 18.5552 14.0571 23.8019 11.3875 29.5966C10.0154 32.5802 8.96669 35.7018 8.34029 38.9026C8.07928 40.74 7.99073 42.6171 8.28342 44.4563C8.57332 46.3342 9.36099 48.1919 10.7825 49.564C11.2775 50.09 11.943 50.4234 12.5704 50.7849C14.1979 51.6812 16.0146 52.2837 17.892 52.4719C20.2857 52.7208 22.6944 52.4033 25.0472 51.9934C28.7823 51.2994 32.4633 50.3767 36.1639 49.5403C37.3664 49.2597 38.5754 49.0002 39.7779 48.7187C44.2121 47.5709 48.7302 46.6456 53.3201 46.2946C57.3339 45.9964 61.4438 46.1618 65.3131 47.2859C67.265 47.8506 69.134 48.6668 70.8519 49.7074C73.0872 51.0787 75.246 52.5678 77.2511 54.2284C78.2494 55.0737 79.2319 55.9559 80 57C77.5 55.2875 74.6243 54.0903 71.6358 53.3735C69.5833 52.8941 67.4542 52.6329 65.3383 52.793C64.0873 52.8167 62.8327 53.0595 61.702 53.574C60.2459 54.2364 58.9913 55.3006 58.1654 56.6139C57.4001 55.3042 56.3608 54.1326 55.0968 53.2266C52.5967 51.419 49.4172 50.6864 46.3206 50.5175C41.5713 50.273 36.85 51.1402 32.2815 52.2881C30.6512 52.7129 29.0144 53.114 27.3691 53.4808C24.7983 54.0745 22.2218 54.6524 19.6183 55.1036C17.7261 55.4132 15.8142 55.7237 13.8856 55.6551C10.8273 55.5848 7.73439 54.7527 5.26513 53.0093C3.82124 51.9961 2.61318 50.6846 1.75653 49.1911C1.05369 47.8611 0.590417 46.4248 0.312637 44.9638C-0.242922 41.9943 -0.00895315 38.9378 0.628635 35.9973C1.40977 32.5186 2.68402 29.1392 4.38892 25.9683C8.95737 17.417 15.9242 10.069 24.2269 4.59007C26.6458 3.16955 29.1579 1.85457 31.8574 0.969711Z" fill="#F5F8F8"/>
<path d="M185 0C181.823 6.2109 176.54 11.3984 170.1 14.171C166.33 15.8009 162.038 16.5586 158 15.5334C159.342 13.7569 160.774 12.0509 162.251 10.3844C164.25 10.5768 166.28 10.5027 168.251 10.1046C170.37 9.68863 172.41 8.92623 174.343 7.9723C178.353 6.00997 181.958 3.25615 185 0Z" fill="#F5F8F8"/>
<path fill-rule="evenodd" clip-rule="evenodd" d="M128.091 0.246044C126.512 -0.163581 124.836 -0.0128045 123.262 0.341042C118.276 1.67276 113.723 4.21679 109.715 7.31687C106.653 9.68136 103.872 12.3614 101.271 15.1817C100.02 16.5517 98.7895 17.9401 97.6745 19.4148C94.7438 23.2025 92.0418 27.175 89.9137 31.4325C88.5427 34.1464 87.4613 36.9903 86.636 39.8977C85.858 42.9804 85.6694 46.3106 86.7826 49.3418C87.3739 50.9324 88.3887 52.3992 89.7816 53.4485C90.7983 54.2207 92.03 54.727 93.3145 54.9092C95.3815 55.1994 97.4914 54.7654 99.4045 54.0133C103.552 52.0305 107.017 48.913 109.765 45.3719C111.781 42.7564 113.423 39.8725 114.593 36.8203C114.935 35.7422 115.224 34.6458 115.386 33.5294C115.606 31.9859 115.581 30.3439 114.873 28.9111C114.311 27.7467 112.934 27.0399 111.611 27.1427C110.418 27.2456 109.253 27.5759 108.169 28.0578C105.636 29.1935 103.551 31.1143 102.008 33.3263C100.938 34.8454 100.174 36.5371 99.512 38.2497C98.7558 40.2298 98.335 42.311 98.0699 44.4001C100.186 42.1516 102.7 40.1967 105.584 38.926C105.985 36.6948 106.887 34.5334 108.28 32.6979C108.877 31.8691 109.556 31.0664 110.438 30.5008C111.096 30.072 111.936 29.8227 112.725 30.0328C113.099 30.1312 113.355 30.4485 113.491 30.7814C113.753 31.4333 113.742 32.1489 113.695 32.8356C113.546 34.5055 113.029 36.124 112.385 37.6753C111.231 40.3867 109.55 42.8741 107.594 45.1174C106.469 46.3864 105.256 47.5978 103.859 48.5975C102.629 49.4856 101.282 50.2935 99.7616 50.6203C98.6839 50.8583 97.5087 50.7424 96.543 50.2116C95.5555 49.6982 94.7976 48.8328 94.3703 47.8445C93.7681 46.4666 93.6825 44.9239 93.892 43.4571C94.2519 40.6856 94.9943 37.9647 96.0301 35.3544C97.557 31.5214 99.6686 27.9297 101.96 24.4714C102.103 24.2608 102.245 24.0496 102.387 23.8384C103.155 22.6963 103.924 21.5535 104.801 20.4833C107.951 16.4855 111.246 12.5583 115.09 9.14537C117.77 6.77564 120.737 4.67261 124.02 3.12736C125.414 2.43972 127.105 2.06844 128.618 2.62884C126.35 3.90739 124.28 5.49447 122.407 7.26022C120.192 9.36848 118.298 11.8105 116.992 14.5341C116.284 15.9844 115.565 17.5122 115.601 19.1472C115.636 20.0457 115.906 20.9809 116.542 21.6642C117.175 22.3231 118.181 22.4643 119.069 22.3806C121.256 21.9196 123.16 20.6489 124.699 19.1298C126.247 17.6054 127.503 15.8406 128.677 14.0443C128.977 13.6274 129.192 13.1652 129.406 12.7035C129.478 12.5484 129.55 12.3934 129.625 12.2402C130.137 11.1334 130.616 10.0091 130.971 8.84556C131.507 7.1382 131.727 5.3376 131.562 3.55878C132.123 3.29383 132.757 3.21103 133.378 3.22846C135.029 3.2825 136.623 3.78538 138.137 4.38413C139.798 4.96206 141.314 5.84641 142.816 6.72259L142.87 6.75385C144.282 7.60008 145.676 8.47533 147.069 9.35029C147.163 9.40981 147.258 9.46933 147.353 9.52884C147.669 9.72168 147.983 9.91821 148.298 10.1148C149.382 10.7927 150.468 11.4717 151.64 12.004C153.037 10.4771 154.481 8.98849 156 7.57136C152.763 5.63479 149.428 3.85684 146.078 2.10853C144.641 1.37295 143.11 0.795116 141.522 0.442141C139.398 -0.0363362 137.17 -0.0868856 135.025 0.298336C133.825 0.498147 132.679 0.887787 131.534 1.27677C131.191 1.39339 130.848 1.50996 130.504 1.62134C129.855 0.956351 129.006 0.483103 128.091 0.246044ZM119.257 14.0931C121.05 11.1386 123.391 8.47689 126.193 6.35381C127.305 5.51626 128.495 4.77022 129.753 4.14707C129.908 4.6934 129.828 5.25329 129.749 5.80706C129.727 5.9556 129.706 6.10369 129.69 6.25097C129.157 9.82081 127.541 13.2129 125.178 16.0131C123.77 17.6569 122.147 19.1829 120.202 20.2349C119.535 20.6253 118.619 20.7752 117.945 20.3194C117.335 19.9002 117.28 19.0932 117.377 18.4412C117.626 16.8746 118.449 15.4706 119.248 14.1077L119.257 14.0931Z" fill="#F5F8F8"/>
<path fill-rule="evenodd" clip-rule="evenodd" d="M168.691 0.00901975C167.101 0.126888 165.665 0.871919 164.334 1.65125C164.197 1.73554 164.061 1.81917 163.924 1.90281L163.924 1.90287L163.923 1.90308C163.275 2.2994 162.626 2.6961 162.034 3.16595C155.935 7.78391 150.687 13.3501 146.178 19.3737C141.849 25.1589 138.169 31.361 134.931 37.7487C134.826 37.9665 134.586 38.0487 134.355 38.1273C134.279 38.1535 134.203 38.1794 134.134 38.2097C133.345 38.4436 132.512 38.6899 131.677 38.5791C132.619 36.6959 133.511 34.7651 133.946 32.7112C134.072 31.8035 134.176 30.8816 134.056 29.9677C133.955 29.1013 133.594 28.2401 132.92 27.6288C132.363 27.0527 131.494 26.9084 130.709 26.8592C129.118 26.7905 127.629 27.4335 126.257 28.1267C124.64 28.9632 123.177 30.0434 121.843 31.2414C119.1 33.7149 116.88 36.6501 114.849 39.6628C113.554 41.9067 112.325 44.213 111.608 46.6891C111.219 48.0613 110.946 49.4819 111.009 50.9086C111.053 51.8225 111.255 52.762 111.797 53.5351C112.275 54.2133 113.009 54.7578 113.866 54.9188C115.016 55.1466 116.202 54.866 117.262 54.4403C120.084 53.1833 122.455 51.1769 124.498 48.9735C126.92 46.3373 128.89 43.3642 130.72 40.3392C131.801 40.2803 132.883 40.1844 133.94 39.9513C133.707 40.6457 133.463 41.3372 133.218 42.0289L133.218 42.0289C132.581 43.8324 131.943 45.6369 131.512 47.4966C131.165 49.0685 130.893 50.7362 131.369 52.3116C131.78 53.6548 132.983 54.8977 134.524 54.9856C136.091 55.0569 137.51 54.252 138.721 53.3935C140.335 52.2192 141.714 50.7855 142.99 49.2901C142.814 50.5559 142.743 51.8947 143.243 53.105C143.56 53.8835 144.226 54.544 145.073 54.8C145.96 55.0674 146.953 55.041 147.815 54.705C148.647 54.4007 149.414 53.9626 150.142 53.4806C151.458 52.5983 152.647 51.5551 153.761 50.4539C153.528 51.395 153.488 52.4031 153.798 53.3328C154.006 53.96 154.458 54.5528 155.124 54.7956C156.109 55.1475 157.226 55.0058 158.151 54.559C159.377 53.9714 160.598 53.3469 161.664 52.5174C163.034 51.4768 164.245 50.2656 165.406 49.021C167.807 46.3839 169.954 43.5419 171.871 40.5714C171.544 40.571 171.216 40.571 170.89 40.571C170.563 40.571 170.236 40.571 169.91 40.5705L169.648 40.9439C168.412 42.7041 167.174 44.4687 165.729 46.0822C164.59 47.3479 163.323 48.5363 161.822 49.415C161.557 49.5839 161.235 49.7422 160.908 49.6455C160.566 49.5698 160.405 49.1934 160.499 48.8908C160.596 48.5259 160.756 48.1789 160.915 47.8342L160.915 47.8341L160.968 47.7191C161.694 46.2282 162.567 44.8068 163.456 43.3994C163.622 43.1328 163.796 42.871 163.969 42.6092L163.97 42.6089C164.228 42.2194 164.487 41.83 164.718 41.4255C167.479 36.79 170.239 32.1544 173 27.518C171.691 27.5174 170.383 27.5176 169.075 27.5178L167.113 27.518L167.113 27.5181C166.818 27.994 166.522 28.4698 166.235 28.9509C166.161 28.8551 166.086 28.7566 166.011 28.6572C165.501 27.9809 164.958 27.2615 164.074 27.0421C162.654 26.6507 161.115 27.014 159.847 27.6684C157.079 29.1936 154.723 31.3047 152.644 33.5935C150.268 36.2085 148.226 39.0734 146.261 41.9726C146.005 42.3478 145.751 42.725 145.498 43.1022L145.497 43.1028L145.497 43.1034L145.497 43.1035L145.497 43.1035C144.732 44.2428 143.966 45.3823 143.113 46.4657C142.269 47.5283 141.393 48.59 140.296 49.4309L140.282 49.4402C139.878 49.7205 139.409 50.0455 138.879 49.9437C138.409 49.8847 138.067 49.5012 137.94 49.0887C137.714 48.3876 137.782 47.6338 137.944 46.9275C138.631 43.6254 139.976 40.4817 141.485 37.4497C143.316 36.2042 145.132 34.9322 146.864 33.5627C149.692 31.3663 152.323 28.9526 154.848 26.4493C157.387 23.9125 159.826 21.2842 162.112 18.5389C162.197 18.4339 162.283 18.329 162.369 18.224C163.202 17.206 164.038 16.1843 164.721 15.068C164.06 15.1788 163.391 15.2448 162.722 15.2729C160.395 18.2988 157.793 21.125 155.103 23.865C152.536 26.4501 149.884 28.9641 147.062 31.2994C146.927 31.4061 146.792 31.5133 146.658 31.6205C145.599 32.4647 144.533 33.3146 143.311 33.9374C144.517 31.4053 145.989 28.9973 147.458 26.595L147.639 26.2988C149.668 23.0452 151.803 19.8487 154.082 16.7471C156.095 13.9984 158.226 11.3208 160.582 8.82712C161.607 7.73793 162.72 6.7303 163.833 5.72283L163.833 5.72272C164.159 5.42763 164.485 5.13256 164.809 4.83545C164.896 4.76049 164.984 4.68516 165.071 4.6097C166.081 3.73942 167.11 2.85204 168.369 2.32592C168.42 2.30998 168.474 2.29062 168.529 2.27065L168.529 2.27063C168.802 2.17163 169.117 2.0578 169.347 2.27226C169.555 2.43747 169.538 2.69546 169.522 2.93264L169.522 2.93284L169.522 2.93304C169.519 2.97858 169.516 3.02335 169.514 3.06655C169.46 3.89602 169.157 4.68943 168.774 5.43007C168.434 6.08172 168.098 6.73511 167.762 7.38882L167.523 7.85251C168.223 7.72057 168.919 7.5728 169.601 7.37313C170.433 5.89538 171.265 4.33231 171.304 2.62147C171.303 1.90194 171.298 1.07247 170.719 0.52975C170.203 0.0116585 169.393 -0.0244055 168.691 0.00901975ZM126.098 33.2196C126.411 31.7771 127.546 30.6204 128.843 29.8753C129.457 29.4496 130.249 29.2429 131.005 29.3704C131.522 29.4311 131.842 29.9035 132.015 30.3275C132.323 31.1983 132.196 32.1298 132.073 33.025L132.048 33.2117C131.559 34.9876 130.797 36.6932 129.839 38.2879C128.907 38.1147 128.08 37.5975 127.398 36.987C126.344 36.037 125.791 34.5821 126.098 33.2196ZM163.637 29.7707C162.817 29.9593 162.168 30.4894 161.541 31.0017C161.469 31.0603 161.397 31.1187 161.326 31.1763C157.913 34.0447 155.395 37.7021 153.055 41.3745C152.938 41.5678 152.814 41.7582 152.691 41.9486L152.691 41.9489C152.41 42.3831 152.129 42.817 151.914 43.2841L151.89 43.3314C151.133 44.8198 150.355 46.3505 150.186 48.0165C150.183 48.0714 150.178 48.1271 150.173 48.1833L150.173 48.1833C150.144 48.5168 150.115 48.8663 150.313 49.1591C150.545 49.5769 151.131 49.6297 151.569 49.5355C152.185 49.3792 152.664 48.977 153.134 48.5823C153.251 48.484 153.367 48.3861 153.485 48.2926C153.885 47.9936 154.188 47.608 154.49 47.2236C154.598 47.0868 154.705 46.9501 154.817 46.8175C157.306 43.662 159.349 40.2389 161.392 36.8157L161.392 36.8157C162.511 34.94 163.63 33.0643 164.823 31.2326C165.062 30.915 165.18 30.4691 164.902 30.1366C164.676 29.6924 164.077 29.6836 163.637 29.7707ZM118.256 45.7163C118.749 44.0054 119.57 42.3993 120.467 40.8485C121.507 39.0831 122.675 37.3837 123.979 35.7828C124.944 37.7118 126.83 39.084 128.844 39.9504C128.085 41.4924 127.132 42.9402 126.097 44.3282C125.042 45.7084 123.908 47.0533 122.545 48.1739C121.89 48.6982 121.181 49.1969 120.351 49.437C119.818 49.5918 119.193 49.576 118.734 49.2479C118.308 48.9814 118.109 48.5011 118.03 48.042C117.904 47.2626 118.051 46.4719 118.256 45.7163Z" fill="#F5F8F8"/>
<path fill-rule="evenodd" clip-rule="evenodd" d="M39.6969 14.0229C38.0147 14.1721 36.4498 14.8502 35.0174 15.6435C33.3617 16.5703 31.8545 17.7083 30.4552 18.9388C28.2981 20.8421 26.4001 22.9872 24.7198 25.2606C22.751 27.9921 21.1397 30.9915 20.3611 34.2074C19.9429 36.0488 19.7603 38.0403 20.5295 39.8258C20.9836 40.9821 22.2079 41.8025 23.5135 41.9587C24.5372 42.0826 25.5714 41.8505 26.5165 41.4961C27.9631 40.9429 29.2622 40.1112 30.4703 39.201C31.8706 38.145 33.1498 36.9573 34.3381 35.7006C36.535 33.5979 38.1641 31.0948 39.787 28.6013L39.7871 28.6011L39.7872 28.601C40.2071 27.9558 40.6267 27.3112 41.0555 26.6743C42.0575 26.4972 43.0461 26.2668 44.0263 26.0102C42.8323 27.9589 41.7301 29.9652 40.9145 32.0772C40.4935 33.209 40.1122 34.3793 40.1075 35.5863C40.1993 37.0742 40.3384 38.6424 41.2296 39.9331C42.0414 41.1078 43.4776 41.9613 45.0084 41.984C46.9148 42.1009 48.8042 41.5677 50.4561 40.716C52.8891 39.4565 54.8948 37.6634 56.8874 35.8819C57.3 35.5131 57.7121 35.1447 58.1273 34.7816C58.0612 35.0381 57.9899 35.294 57.9186 35.5501L57.9186 35.5501C57.6836 36.3936 57.4482 37.2389 57.3959 38.1118C57.3392 38.9828 57.4196 39.9139 57.9418 40.6671C58.5048 41.4979 59.5748 41.9395 60.6099 41.9883C61.7925 42.039 62.9345 41.634 63.9487 41.106C65.6073 40.2194 67.0331 39.0063 68.3009 37.6895C68.2894 37.8543 68.2742 38.0197 68.259 38.1853L68.259 38.1857C68.2044 38.7815 68.1496 39.3804 68.2621 39.9724C68.4049 40.7552 69.0086 41.4185 69.7532 41.7885C70.7456 42.1166 71.8479 41.9473 72.7968 41.5747C74.4516 40.9158 75.8414 39.8267 77.1915 38.7498C80.9183 35.6727 83.8834 31.9192 86.6981 28.1317C86.2452 28.1311 85.7927 28.1313 85.3404 28.1315L84.6621 28.1317C83.3867 29.7488 82.0726 31.345 80.6307 32.8408C79.6032 33.8993 78.5275 34.9335 77.2786 35.7721C77.2482 35.7905 77.2178 35.8091 77.1874 35.8278L77.1218 35.8682C76.7254 36.1125 76.3141 36.3659 75.832 36.4144C75.5727 36.4494 75.3201 36.2993 75.2482 36.068C75.0921 35.6238 75.2653 35.1447 75.4933 34.7485C78.1575 30.4857 80.8229 26.2232 83.4882 21.9609L83.5113 21.9241L83.6237 21.7443L83.7743 21.5035C85.183 19.2508 86.5916 16.9981 88 14.7455C86.5205 14.7442 85.041 14.7443 83.5615 14.7445L82.082 14.7446C81.9804 14.8927 81.8795 15.0412 81.7787 15.1896L81.7781 15.1904L81.7777 15.1911C81.6459 15.385 81.5142 15.5788 81.381 15.7718C80.8861 15.0335 80.1501 14.3964 79.2295 14.1538C78.1131 13.8484 76.9219 14.1041 75.8745 14.5046C74.111 15.2002 72.5811 16.3032 71.1553 17.4665C68.5431 19.6448 66.2781 22.1512 64.1881 24.7588C63.7508 25.3121 63.3232 25.8719 62.8955 26.4319L62.8953 26.4321C62.2304 27.3028 61.5653 28.1736 60.8634 29.0201C58.8615 31.4453 56.7204 33.7938 54.2482 35.8271C53.2112 36.6379 52.0608 37.3657 50.7589 37.7575C49.9065 38.0115 48.8761 38.035 48.1505 37.4826C47.333 36.8944 47.1135 35.8769 47.1078 34.9719C47.0965 33.9159 47.4144 32.8896 47.8401 31.9192C49.5271 27.8376 51.9217 23.9803 55.0609 20.699C56.1461 19.5776 57.3221 18.5251 58.6088 17.6001C59.3042 17.1332 60.1179 16.7649 60.9893 16.7204C61.4368 16.696 61.9316 16.8242 62.2031 17.1759C62.5702 17.6411 62.5267 18.2912 62.2249 18.7756C61.3431 18.7398 60.4311 18.9842 59.7792 19.5479C59.1926 20.0628 58.6826 20.665 58.3458 21.3465C58.0166 22.0141 57.9097 22.8022 58.1859 23.5012C58.5114 23.9908 59.1283 24.3451 59.7659 24.2622C60.5493 24.1662 61.1955 23.6854 61.7339 23.1827C62.7046 22.2402 63.4132 21.0821 63.8844 19.8612C64.2392 18.8925 64.4776 17.8366 64.2259 16.8216C63.9818 15.8145 63.2865 14.8659 62.2533 14.4243C61.0073 13.8815 59.5521 13.9129 58.2399 14.2193C56.6352 14.6312 55.2076 15.4655 53.8934 16.3888C52.496 17.3828 51.1771 18.4736 49.9802 19.6701C48.9357 20.7208 47.7805 21.6755 46.5515 22.5386C45.6215 23.1836 44.6555 23.7971 43.5949 24.2447C43.155 24.4202 42.6857 24.5851 42.1965 24.5388C43.0793 22.5718 43.9525 20.5419 44.068 18.3907C44.1313 17.1873 43.8759 15.8748 42.9364 14.9785C42.1275 14.1643 40.8483 13.9208 39.6969 14.0229ZM37.886 17.4124C38.307 17.0738 38.8151 16.8321 39.3544 16.6986C39.8634 16.5729 40.4254 16.5345 40.9212 16.7265C41.4557 16.9194 41.6705 17.4735 41.8228 17.9404C42.1313 19.1491 41.7916 20.397 41.4169 21.5595C41.2749 22.0456 41.0536 22.505 40.8322 22.9645L40.8321 22.9647C40.7468 23.1418 40.6614 23.319 40.5806 23.4977C40.505 23.6382 40.4407 23.7852 40.3765 23.9322C40.272 24.1716 40.1674 24.4109 40.0138 24.6218C39.7754 24.6862 39.5308 24.6349 39.2882 24.5839C39.1727 24.5597 39.0576 24.5355 38.9438 24.524C37.7384 24.2308 36.5974 23.5492 35.9569 22.5447C35.4838 21.8335 35.5028 20.9364 35.7487 20.1579C36.1121 19.0566 36.9437 18.142 37.886 17.4124ZM77.9579 17.0337C76.9966 17.4936 76.1565 18.1551 75.4734 18.9283C74.6247 19.8376 73.812 20.7758 73.0116 21.7218C70.7031 24.421 68.4967 27.2189 66.7852 30.2829C66.0463 31.6111 65.3764 32.9813 64.9393 34.4212C64.9258 34.4726 64.9119 34.5242 64.8979 34.5759C64.7937 34.9621 64.6875 35.356 64.7283 35.7547C64.7889 36.2757 65.331 36.7007 65.9015 36.6509C66.2655 36.666 66.563 36.4803 66.8537 36.2989L66.8537 36.2989C66.9347 36.2483 67.0152 36.1981 67.0965 36.1526C68.9751 34.991 70.2246 33.2257 71.4423 31.5053C71.5511 31.3516 71.6597 31.1982 71.7684 31.0456C74.6768 26.5888 77.4867 22.0779 80.2475 17.5425C80.1624 17.2353 79.958 16.9403 79.6259 16.8225C79.0734 16.6183 78.4641 16.8033 77.9579 17.0337ZM28.0511 31.4558C29.0247 28.9617 30.4997 26.6665 32.0806 24.4647C32.22 24.2782 32.3562 24.0896 32.4924 23.901C32.8031 23.4709 33.1138 23.0407 33.461 22.6355C34.1801 23.9297 35.3712 24.9673 36.7611 25.6402C37.4338 25.977 38.1538 26.224 38.8842 26.4326C38.7545 26.8645 38.4926 27.238 38.231 27.6109C38.1089 27.785 37.9869 27.959 37.8785 28.1387C37.6185 28.5112 37.3709 28.8916 37.1233 29.2719C36.6059 30.0666 36.0886 30.8613 35.4583 31.585C34.2217 33.0685 32.9227 34.5521 31.2575 35.6482C31.1979 35.6847 31.1382 35.7218 31.0783 35.7591C30.651 36.0252 30.2133 36.2978 29.6955 36.3743C29.1666 36.472 28.5384 36.5017 28.1069 36.15C27.5724 35.6657 27.3425 34.9544 27.3614 34.2746C27.3812 33.4262 27.6582 32.6124 27.9322 31.8077C27.9722 31.6902 28.0121 31.573 28.0511 31.4558Z" fill="#F5F8F8"/>
<path d="M91.2458 14C93.1642 14.0018 95.0826 14 97 14.0018C95.9197 15.6678 94.8365 17.332 93.7562 18.9989C91.8368 19.0008 89.9184 18.9999 88 18.9989C89.0813 17.3329 90.1626 15.666 91.2458 14Z" fill="#F5F8F8"/>
</svg>
