<svg width="80" height="69" viewBox="0 0 80 69" fill="none" xmlns="http://www.w3.org/2000/svg">
<path d="M54.9839 47.847C59.033 47.3318 63.1133 46.9282 67.2105 46.9097C70.4537 46.9059 73.7227 47.1496 76.8518 47.9154C73.6497 54.534 67.9406 60.2139 60.848 63.9476C57.02 65.9706 52.7926 67.4291 48.4012 68.2373C42.6583 69.2953 36.6453 69.253 30.9247 68.1081C24.1093 66.7525 17.7379 63.8007 12.6449 59.6687C9.18421 56.8707 6.29939 53.5429 4.18658 49.8792C8.12692 51.0079 12.258 51.5846 16.3954 51.8037C20.9811 52.0636 25.5847 51.8075 30.142 51.3401C38.4782 50.4797 46.686 48.9157 54.9839 47.847Z" fill="#F5F8F8"/>
<path fill-rule="evenodd" clip-rule="evenodd" d="M55.96 2.85675C62.3029 5.23109 67.8934 9.06556 72.0352 13.8396C75.9104 18.2915 78.5064 23.5669 79.5075 29.0683C80.4275 34.103 80.0594 39.3146 78.3959 44.207C75.7437 43.8741 73.0488 44.0817 70.4145 44.43C66.8325 44.9083 63.3299 45.7279 59.8068 46.4468C55.7309 47.2857 51.6194 48.0115 47.4678 48.5067C39.0817 49.5178 30.4878 49.6062 22.1498 48.223C18.1177 47.5556 14.1604 46.546 10.3672 45.1905C6.98224 43.9948 3.75598 42.4893 0.664335 40.8085C-0.432183 35.6531 -0.174546 30.2809 1.46132 25.2308C3.2728 19.5902 6.80216 14.3725 11.584 10.222C16.1609 6.22527 21.8869 3.21428 28.1085 1.5504C37.1766 -0.896219 47.2565 -0.43719 55.96 2.85675Z" fill="#F5F8F8"/>
<path d="M17.8667 15.3232C18.5274 15.1321 19.2205 15.0072 19.9212 15.0001C20.1073 15.0004 20.2972 14.994 20.4771 15.0429C20.9871 15.1602 21.4684 15.464 21.6403 15.8982C21.7913 16.2418 21.7937 16.6218 21.6948 16.976C21.56 17.4633 21.2632 17.9075 20.9118 18.3059C20.7 18.5531 20.375 18.734 20.017 18.7841C19.8208 18.812 19.5969 18.7829 19.4566 18.6548C19.2826 18.4947 19.267 18.259 19.2958 18.054C19.358 17.6436 19.6639 17.2912 20.0229 17.0238C20.2604 16.8449 20.5923 16.8047 20.8986 16.7936C20.9476 16.7637 20.9639 16.7098 20.9837 16.6637C21.05 16.4641 21.0191 16.2274 20.8507 16.0691C20.7045 15.9319 20.4785 15.8835 20.2674 15.8788C19.9677 15.8753 19.6726 15.936 19.3941 16.026C18.3181 16.3544 17.3705 16.9226 16.525 17.5641C15.9473 18.0036 15.4077 18.4774 14.8837 18.9624C14.6716 19.1635 14.4476 19.3558 14.2494 19.5672C12.665 21.1851 11.2362 22.934 10.2418 24.8655C9.73065 25.86 9.34003 26.9006 9.1067 27.9675C9.00948 28.58 8.9765 29.2057 9.08552 29.8188C9.19351 30.4447 9.48691 31.064 10.0164 31.5213C10.2008 31.6967 10.4487 31.8078 10.6824 31.9283C11.2886 32.2271 11.9654 32.4279 12.6647 32.4906C13.5563 32.5736 14.4535 32.4678 15.3299 32.3311C16.7212 32.0998 18.0924 31.7922 19.4708 31.5134C19.9187 31.4199 20.3691 31.3334 20.817 31.2396C22.4687 30.857 24.1517 30.5485 25.8614 30.4315C27.3565 30.3321 28.8874 30.3873 30.3287 30.762C31.0558 30.9502 31.752 31.2223 32.3919 31.5691C33.2245 32.0262 34.0287 32.5226 34.7755 33.0761C35.1474 33.3579 35.5134 33.652 35.7995 34C34.8682 33.4292 33.7971 33.0301 32.6839 32.7912C31.9193 32.6314 31.1263 32.5443 30.3381 32.5977C29.8721 32.6056 29.4048 32.6865 28.9836 32.858C28.4412 33.0788 27.9739 33.4335 27.6662 33.8713C27.3812 33.4347 26.994 33.0442 26.5232 32.7422C25.592 32.1397 24.4076 31.8955 23.2541 31.8392C21.485 31.7577 19.7264 32.0467 18.0247 32.4294C17.4174 32.571 16.8077 32.7047 16.1948 32.8269C15.2372 33.0248 14.2775 33.2175 13.3077 33.3679C12.6028 33.4711 11.8907 33.5746 11.1723 33.5517C10.0331 33.5283 8.88101 33.2509 7.96123 32.6698C7.42339 32.332 6.97339 31.8949 6.6543 31.397C6.39249 30.9537 6.21993 30.4749 6.11646 29.9879C5.90951 28.9981 5.99666 27.9793 6.23416 26.9991C6.52513 25.8395 6.99978 24.7131 7.63484 23.6561C9.33656 20.8057 11.9317 18.3563 15.0244 16.53C15.9254 16.0565 16.8611 15.6182 17.8667 15.3232Z" fill="#036482"/>
<path d="M75 15C73.8312 16.9089 71.8875 18.5033 69.5184 19.3555C68.1312 19.8565 66.5523 20.0893 65.0668 19.7742C65.5604 19.2282 66.0875 18.7039 66.6309 18.1917C67.3663 18.2508 68.1129 18.228 68.838 18.1057C69.6177 17.9778 70.3681 17.7435 71.0793 17.4503C72.5548 16.8472 73.8807 16.0008 75 15Z" fill="#036482"/>
<path fill-rule="evenodd" clip-rule="evenodd" d="M53.6784 15.0827C53.0743 14.945 52.433 14.9957 51.831 15.1146C49.9229 15.562 48.1807 16.4167 46.6473 17.4583C45.4758 18.2527 44.4116 19.1531 43.4164 20.1006C42.9378 20.5609 42.4669 21.0274 42.0402 21.5228C40.9189 22.7954 39.885 24.13 39.0707 25.5604C38.5461 26.4722 38.1324 27.4277 37.8166 28.4045C37.5189 29.4402 37.4467 30.559 37.8727 31.5774C38.0989 32.1118 38.4872 32.6046 39.0202 32.9572C39.4092 33.2166 39.8805 33.3867 40.372 33.4479C41.1629 33.5454 41.9702 33.3996 42.7022 33.1469C44.2892 32.4808 45.6149 31.4334 46.6665 30.2437C47.4379 29.3649 48.066 28.396 48.5139 27.3706C48.6447 27.0084 48.7552 26.64 48.8172 26.2649C48.9012 25.7463 48.8918 25.1947 48.621 24.7133C48.4059 24.3221 47.8788 24.0846 47.3727 24.1192C46.9164 24.1537 46.4706 24.2647 46.0558 24.4266C45.0864 24.8082 44.2889 25.4535 43.6984 26.1967C43.2888 26.7071 42.9967 27.2754 42.7433 27.8508C42.454 28.5161 42.293 29.2153 42.1915 29.9172C43.0013 29.1617 43.963 28.5049 45.0666 28.078C45.2199 27.3284 45.5654 26.6022 46.0983 25.9856C46.3266 25.7071 46.5863 25.4374 46.9241 25.2474C47.1758 25.1033 47.4972 25.0196 47.799 25.0901C47.9419 25.1232 48.0402 25.2298 48.0922 25.3417C48.1922 25.5607 48.188 25.8011 48.1703 26.0318C48.1131 26.5929 47.9154 27.1366 47.669 27.6578C47.2274 28.5688 46.5842 29.4045 45.8359 30.1582C45.4054 30.5845 44.9411 30.9915 44.4067 31.3274C43.9361 31.6257 43.4206 31.8972 42.8388 32.007C42.4265 32.0869 41.9768 32.048 41.6073 31.8697C41.2295 31.6972 40.9394 31.4064 40.776 31.0744C40.5456 30.6114 40.5128 30.0932 40.593 29.6004C40.7307 28.6692 41.0147 27.755 41.4111 26.8781C41.9953 25.5903 42.8033 24.3836 43.6799 23.2217C43.7345 23.1509 43.7889 23.08 43.8433 23.009C44.1373 22.6253 44.4315 22.2414 44.7671 21.8818C45.9725 20.5387 47.2329 19.2192 48.7039 18.0726C49.7294 17.2764 50.8647 16.5699 52.1206 16.0507C52.6543 15.8197 53.3013 15.6949 53.8802 15.8832C53.0123 16.3128 52.2203 16.846 51.5037 17.4392C50.6559 18.1475 49.9316 18.968 49.4317 19.883C49.1609 20.3703 48.8855 20.8836 48.8995 21.4329C48.9127 21.7348 49.0162 22.049 49.2595 22.2786C49.5018 22.4999 49.8866 22.5474 50.2265 22.5192C51.0634 22.3643 51.7919 21.9374 52.3807 21.4271C52.9729 20.9149 53.4536 20.322 53.9025 19.7185C54.0176 19.5784 54.0997 19.4231 54.1816 19.268C54.2091 19.2159 54.2367 19.1638 54.2654 19.1124C54.4613 18.7405 54.6447 18.3628 54.7806 17.9719C54.9856 17.3982 55.0699 16.7933 55.0065 16.1956C55.2212 16.1066 55.4638 16.0788 55.7015 16.0847C56.3331 16.1028 56.9431 16.2718 57.5225 16.4729C58.158 16.6671 58.7381 16.9642 59.3128 17.2586L59.3333 17.2691C59.8738 17.5534 60.4069 17.8475 60.9399 18.1414C60.9761 18.1614 61.0124 18.1814 61.0486 18.2014C61.1697 18.2662 61.2899 18.3322 61.4103 18.3983C61.8252 18.626 62.2408 18.8542 62.689 19.033C63.2234 18.52 63.7762 18.0199 64.3573 17.5438C63.1188 16.8931 61.8427 16.2958 60.561 15.7084C60.0109 15.4613 59.4253 15.2671 58.8174 15.1485C58.0049 14.9878 57.1523 14.9708 56.3318 15.1002C55.8726 15.1674 55.434 15.2983 54.996 15.429C54.8647 15.4681 54.7335 15.5073 54.6018 15.5447C54.3536 15.3213 54.0287 15.1623 53.6784 15.0827ZM50.2983 19.7349C50.9843 18.7422 51.8801 17.848 52.9523 17.1347C53.3779 16.8533 53.8332 16.6027 54.3146 16.3933C54.3736 16.5768 54.343 16.765 54.3127 16.951C54.3046 17.0009 54.2965 17.0507 54.2902 17.1001C54.0862 18.2995 53.4679 19.4391 52.564 20.38C52.0251 20.9322 51.4043 21.4449 50.6601 21.7983C50.4046 21.9295 50.0543 21.9799 49.7963 21.8267C49.5628 21.6859 49.5419 21.4148 49.5788 21.1957C49.6744 20.6694 49.9893 20.1977 50.295 19.7398L50.2983 19.7349Z" fill="#036482"/>
<path fill-rule="evenodd" clip-rule="evenodd" d="M69.2107 15.2265C68.6123 15.2658 68.0722 15.5141 67.5712 15.7738C67.5199 15.802 67.4684 15.8298 67.4169 15.8577C67.173 15.9898 66.9289 16.122 66.7059 16.2786C64.4115 17.8176 62.437 19.6726 60.7406 21.68C59.112 23.608 57.7276 25.675 56.5095 27.8038C56.4701 27.8763 56.3797 27.9037 56.293 27.9299C56.2642 27.9387 56.2357 27.9473 56.2097 27.9574C55.9128 28.0353 55.5994 28.1174 55.2854 28.0805C55.6396 27.4529 55.9753 26.8094 56.1388 26.1249C56.1863 25.8224 56.2254 25.5152 56.1804 25.2106C56.1423 24.9219 56.0064 24.6349 55.7531 24.4312C55.5435 24.2392 55.2166 24.1911 54.9214 24.1747C54.3226 24.1518 53.7623 24.3661 53.2463 24.5971C52.6381 24.8759 52.0875 25.2358 51.5855 25.6351C50.5536 26.4594 49.7187 27.4376 48.9543 28.4416C48.4674 29.1894 48.0048 29.958 47.7352 30.7832C47.5888 31.2405 47.4861 31.714 47.5098 32.1894C47.5262 32.494 47.6024 32.8071 47.8061 33.0648C47.986 33.2908 48.2623 33.4722 48.5847 33.5259C49.0172 33.6018 49.4633 33.5083 49.8623 33.3664C50.9239 32.9475 51.8161 32.2788 52.5847 31.5445C53.4957 30.666 54.2367 29.6752 54.9252 28.6671C55.3318 28.6474 55.7392 28.6155 56.1367 28.5378C56.0492 28.7692 55.9572 28.9997 55.8653 29.2302L55.8653 29.2302L55.8653 29.2302C55.6255 29.8312 55.3856 30.4326 55.2232 31.0523C55.0929 31.5762 54.9905 32.132 55.1694 32.657C55.3242 33.1046 55.7766 33.5188 56.3565 33.5481C56.9461 33.5719 57.4799 33.3037 57.9355 33.0176C58.5426 32.6262 59.0614 32.1484 59.5414 31.6501C59.4753 32.0719 59.4484 32.518 59.6367 32.9214C59.7559 33.1808 60.0063 33.401 60.3253 33.4863C60.6589 33.5754 61.0323 33.5666 61.3569 33.4546C61.6695 33.3532 61.9584 33.2072 62.2323 33.0466C62.7273 32.7526 63.1745 32.4049 63.5937 32.0379C63.506 32.3515 63.491 32.6875 63.6077 32.9973C63.6859 33.2063 63.8557 33.4039 64.1065 33.4848C64.4772 33.6021 64.8971 33.5549 65.2453 33.406C65.7065 33.2102 66.1658 33.002 66.5669 32.7256C67.0822 32.3788 67.538 31.9752 67.9747 31.5604C68.8778 30.6815 69.6858 29.7344 70.4068 28.7444L70.0376 28.7443L69.669 28.7442L69.5704 28.8686L69.5704 28.8686C69.1057 29.4552 68.6398 30.0433 68.0963 30.581C67.6677 31.0028 67.1908 31.3988 66.6263 31.6917C66.5267 31.748 66.4055 31.8007 66.2825 31.7685C66.1536 31.7433 66.0932 31.6178 66.1285 31.517C66.1649 31.3954 66.2251 31.2797 66.2849 31.1649L66.2849 31.1649L66.285 31.1648L66.3049 31.1265C66.5781 30.6296 66.9064 30.1559 67.2411 29.6869C67.3035 29.598 67.3689 29.5107 67.4343 29.4235C67.5315 29.2936 67.6288 29.1639 67.7159 29.0291L67.7356 28.9997C68.7676 27.4647 69.7996 25.9296 70.8316 24.3942C70.341 24.394 69.8506 24.3941 69.3603 24.3942H69.3549L68.6168 24.3942C68.5057 24.5528 68.3946 24.7114 68.2867 24.8718C68.2586 24.8398 68.2307 24.807 68.2024 24.7739C68.0104 24.5485 67.806 24.3087 67.4734 24.2356C66.9393 24.1052 66.3604 24.2263 65.8832 24.4444C64.8419 24.9527 63.9556 25.6562 63.1734 26.419C62.2795 27.2905 61.5113 28.2452 60.7721 29.2114C60.6755 29.3366 60.58 29.4624 60.4846 29.5882C60.1967 29.9679 59.9087 30.3477 59.5878 30.7088C59.2703 31.0629 58.9405 31.4167 58.5279 31.697L58.5229 31.7001C58.3706 31.7935 58.1942 31.9018 57.9948 31.8679C57.8181 31.8482 57.6895 31.7204 57.6417 31.5829C57.5564 31.3493 57.5823 31.0981 57.6431 30.8627C57.9016 29.7622 58.4074 28.7145 58.9754 27.7041C59.664 27.289 60.3473 26.8651 60.9988 26.4087C62.0629 25.6767 63.0526 24.8723 64.0028 24.0381C64.9578 23.1926 65.8755 22.3167 66.7353 21.4018L66.8321 21.2969L66.8322 21.2969C67.1456 20.9576 67.4601 20.6171 67.7169 20.2451C67.4682 20.282 67.2167 20.304 66.9648 20.3134C66.0893 21.3218 65.1105 22.2637 64.0985 23.1768C63.1329 24.0384 62.1352 24.8762 61.0732 25.6544C61.0227 25.6898 60.9724 25.7254 60.9219 25.761L60.9216 25.7612L60.9213 25.7615C60.523 26.0428 60.1219 26.326 59.6622 26.5336C60.1159 25.6897 60.6698 24.8872 61.2224 24.0866L61.2224 24.0866L61.2905 23.9879C62.0538 22.9036 62.8569 21.8383 63.7145 20.8047C64.4716 19.8887 65.2733 18.9963 66.1599 18.1653C66.5455 17.8023 66.9643 17.4665 67.383 17.1307C67.5056 17.0324 67.6283 16.934 67.7501 16.835L67.8488 16.7598C68.2285 16.4697 68.6156 16.174 69.0895 15.9987C69.1086 15.9934 69.1287 15.9869 69.1495 15.9802C69.2524 15.9473 69.3707 15.9093 69.4573 15.9808C69.5355 16.0358 69.529 16.1218 69.523 16.2009V16.2009V16.2009C69.5218 16.2161 69.5207 16.2311 69.5202 16.2455C69.4999 16.5219 69.3857 16.7863 69.2418 17.0332C69.1139 17.25 68.9877 17.4675 68.8614 17.6851L68.8612 17.6854L68.861 17.6858L68.7712 17.8405C69.0343 17.7965 69.2963 17.7473 69.553 17.6807C69.8657 17.1882 70.1787 16.6673 70.1937 16.0972C70.193 15.8574 70.1913 15.5809 69.9733 15.4001C69.7794 15.2274 69.4744 15.2154 69.2107 15.2265ZM53.1866 26.2944C53.3043 25.8136 53.7312 25.4281 54.2192 25.1798C54.4501 25.038 54.7481 24.9691 55.0325 25.0116C55.227 25.0318 55.3476 25.1892 55.4125 25.3305C55.5285 25.6207 55.4805 25.9312 55.4343 26.2295L55.4248 26.2917C55.241 26.8836 54.9542 27.452 54.5937 27.9834C54.2433 27.9257 53.932 27.7533 53.6756 27.5499C53.2791 27.2333 53.0709 26.7484 53.1866 26.2944ZM67.3092 25.145C67.0005 25.2078 66.7564 25.3845 66.5205 25.5552L66.5204 25.5552C66.4935 25.5748 66.4666 25.5942 66.4397 25.6134C65.1556 26.5693 64.2085 27.7882 63.3282 29.0121C63.2839 29.0765 63.2375 29.14 63.1911 29.2035L63.1911 29.2035C63.0854 29.3482 62.9797 29.4928 62.8988 29.6485L62.8898 29.6642C62.6051 30.1602 62.3123 30.6704 62.2487 31.2256C62.2474 31.2439 62.2456 31.2625 62.2438 31.2812C62.2331 31.3923 62.2219 31.5088 62.2966 31.6064C62.3839 31.7456 62.6044 31.7632 62.7689 31.7318C63.0008 31.6797 63.1809 31.5457 63.3577 31.4142L63.3577 31.4141C63.4018 31.3814 63.4456 31.3488 63.4899 31.3176C63.6401 31.218 63.7542 31.0895 63.8679 30.9614C63.9084 30.9158 63.9489 30.8702 63.9909 30.826C64.9275 29.7744 65.6959 28.6336 66.4644 27.4928C66.8855 26.8677 67.3066 26.2426 67.7553 25.6322C67.8451 25.5263 67.8895 25.3777 67.785 25.2669C67.7001 25.1189 67.4748 25.1159 67.3092 25.145ZM50.2361 30.459C50.4216 29.8889 50.7304 29.3536 51.0678 28.8368C51.4591 28.2484 51.8986 27.6821 52.3894 27.1486C52.7523 27.7914 53.4618 28.2487 54.2196 28.5375C53.9341 29.0514 53.5754 29.5339 53.1862 29.9965C52.789 30.4564 52.3625 30.9046 51.8496 31.2781C51.6034 31.4528 51.3365 31.619 51.0245 31.699C50.824 31.7506 50.5889 31.7453 50.416 31.636C50.2556 31.5472 50.1809 31.3871 50.1512 31.2341C50.1037 30.9744 50.1592 30.7108 50.2361 30.459Z" fill="#036482"/>
<path fill-rule="evenodd" clip-rule="evenodd" d="M20.5427 19.6273C19.9218 19.6773 19.3442 19.9047 18.8155 20.1707C18.2044 20.4814 17.6481 20.863 17.1316 21.2756C16.3354 21.9137 15.6348 22.633 15.0146 23.3952C14.2879 24.3111 13.6932 25.3168 13.4058 26.395C13.2514 27.0124 13.184 27.6802 13.468 28.2788C13.6356 28.6666 14.0875 28.9416 14.5694 28.994C14.9472 29.0355 15.3289 28.9577 15.6778 28.8389C16.2117 28.6534 16.6912 28.3745 17.1372 28.0693C17.654 27.7153 18.1261 27.317 18.5647 26.8957C19.3756 26.1907 19.9769 25.3514 20.576 24.5153L20.576 24.5153C20.731 24.2989 20.8859 24.0828 21.0442 23.8692C21.414 23.8098 21.7789 23.7326 22.1407 23.6466C21.7 24.3 21.2932 24.9727 20.9921 25.6808C20.8367 26.0603 20.696 26.4527 20.6943 26.8574C20.7281 27.3563 20.7795 27.8821 21.1084 28.3148C21.408 28.7087 21.9382 28.9949 22.5032 29.0025C23.2069 29.0417 23.9042 28.8629 24.514 28.5773C25.412 28.155 26.1523 27.5538 26.8878 26.9565L26.8878 26.9565L26.8878 26.9564C27.0401 26.8328 27.1922 26.7093 27.3454 26.5876C27.321 26.6735 27.2947 26.7593 27.2684 26.8451L27.2684 26.8452L27.2684 26.8452C27.1816 27.1281 27.0947 27.4115 27.0755 27.7042C27.0545 27.9962 27.0842 28.3084 27.2769 28.5609C27.4847 28.8395 27.8797 28.9875 28.2617 29.0039C28.6983 29.0209 29.1198 28.8851 29.4941 28.7081C30.1063 28.4108 30.6326 28.0041 31.1005 27.5625C31.0962 27.6179 31.0906 27.6734 31.085 27.7289C31.0649 27.9287 31.0446 28.1295 31.0862 28.328C31.1389 28.5905 31.3617 28.8129 31.6365 28.9369C32.0029 29.0469 32.4097 28.9902 32.76 28.8652C33.3707 28.6443 33.8837 28.2791 34.3821 27.9181C35.7576 26.8863 36.8521 25.6278 37.891 24.3579C37.7238 24.3577 37.5568 24.3578 37.3898 24.3578L37.1395 24.3579C36.6687 24.9001 36.1837 25.4353 35.6515 25.9368C35.2722 26.2917 34.8752 26.6385 34.4142 26.9197C34.395 26.9302 34.3757 26.941 34.3563 26.9519C34.21 27.0338 34.0582 27.1188 33.8802 27.135C33.7846 27.1467 33.6913 27.0964 33.6648 27.0189C33.6072 26.8699 33.6711 26.7093 33.7552 26.5765C34.7402 25.1448 35.7256 23.7133 36.711 22.2818L36.7129 22.2792L36.7147 22.2765L38.3715 19.8696C37.8254 19.8691 37.2793 19.8692 36.7332 19.8692L36.1872 19.8693C36.1497 19.9189 36.1124 19.9687 36.0752 20.0185L36.0749 20.0189C36.0262 20.0839 35.9776 20.1489 35.9284 20.2137C35.7457 19.9661 35.4741 19.7525 35.1343 19.6712C34.7222 19.5688 34.2825 19.6545 33.896 19.7888C33.245 20.022 32.6803 20.3919 32.1541 20.7819C31.1899 21.5123 30.3539 22.3526 29.5825 23.227C29.4211 23.4125 29.2632 23.6002 29.1054 23.7879L29.1053 23.788L29.1053 23.788L29.1053 23.788C28.8599 24.0799 28.6144 24.3719 28.3553 24.6558C27.6164 25.4689 26.8261 26.2563 25.9136 26.9381C25.5309 27.2099 25.1062 27.454 24.6257 27.5854C24.3111 27.6705 23.9308 27.6784 23.6629 27.4932C23.3612 27.296 23.2802 26.9548 23.2781 26.6514C23.2739 26.2973 23.3912 25.9532 23.5484 25.6278C24.171 24.2593 25.0549 22.966 26.2136 21.8657C26.6141 21.4897 27.0482 21.1369 27.5231 20.8267C27.7798 20.6701 28.0801 20.5467 28.4018 20.5317C28.5669 20.5235 28.7496 20.5666 28.8498 20.6845C28.9853 20.8404 28.9692 21.0584 28.8578 21.2208C28.5324 21.2088 28.1957 21.2908 27.9551 21.4798C27.7386 21.6524 27.5504 21.8543 27.4261 22.0829C27.3045 22.3067 27.2651 22.5709 27.367 22.8053C27.4872 22.9695 27.7149 23.0883 27.9502 23.0605C28.2394 23.0283 28.4779 22.867 28.6766 22.6985C29.0349 22.3825 29.2965 21.9942 29.4704 21.5848C29.6013 21.26 29.6893 20.906 29.5964 20.5657C29.5063 20.228 29.2497 19.9099 28.8683 19.7619C28.4084 19.5799 27.8713 19.5904 27.387 19.6931C26.7947 19.8312 26.2677 20.111 25.7827 20.4205C25.2669 20.7538 24.7801 21.1196 24.3383 21.5208C23.9528 21.8731 23.5264 22.1932 23.0728 22.4826C22.7295 22.6988 22.3729 22.9045 21.9815 23.0546C21.8191 23.1134 21.6459 23.1687 21.4653 23.1532C21.7911 22.4937 22.1135 21.8131 22.1561 21.0918C22.1795 20.6883 22.0852 20.2482 21.7384 19.9477C21.4398 19.6747 20.9677 19.5931 20.5427 19.6273ZM19.8743 20.7638C20.0297 20.6502 20.2172 20.5692 20.4163 20.5244C20.6042 20.4823 20.8116 20.4694 20.9946 20.5338C21.1919 20.5985 21.2712 20.7843 21.3274 20.9408C21.4412 21.3461 21.3159 21.7645 21.1776 22.1543C21.1252 22.3173 21.0435 22.4713 20.9617 22.6253C20.9302 22.6848 20.8987 22.7442 20.8689 22.8041C20.841 22.8512 20.8173 22.9005 20.7935 22.9498L20.7935 22.9498L20.7935 22.9498C20.7549 23.0301 20.7164 23.1103 20.6597 23.181C20.5717 23.2026 20.4814 23.1854 20.3918 23.1683C20.3492 23.1602 20.3067 23.1521 20.2647 23.1482C19.8198 23.0499 19.3987 22.8214 19.1622 22.4846C18.9876 22.2461 18.9946 21.9453 19.0854 21.6843C19.2195 21.3151 19.5265 21.0084 19.8743 20.7638ZM34.6649 20.6368C34.3101 20.791 34 21.0128 33.7479 21.272C33.4346 21.5769 33.1347 21.8915 32.8392 22.2087C31.9872 23.1137 31.1728 24.0518 30.5411 25.0792C30.2683 25.5245 30.0211 25.9839 29.8597 26.4667L29.8445 26.5186C29.806 26.6481 29.7668 26.7802 29.7819 26.9138C29.8042 27.0885 30.0043 27.231 30.2149 27.2143C30.3492 27.2194 30.459 27.1571 30.5663 27.0963C30.5962 27.0793 30.626 27.0625 30.6559 27.0473C31.3493 26.6578 31.8105 26.0659 32.26 25.489C32.3002 25.4375 32.3402 25.3861 32.3804 25.3349C33.4539 23.8406 34.491 22.3281 35.51 20.8074C35.4786 20.7044 35.4032 20.6055 35.2806 20.566C35.0767 20.4975 34.8518 20.5595 34.6649 20.6368ZM16.2442 25.4724C16.6036 24.6362 17.148 23.8666 17.7315 23.1283C17.7829 23.0658 17.8332 23.0026 17.8835 22.9393C17.9982 22.7951 18.1128 22.6509 18.241 22.515C18.5064 22.949 18.9461 23.2969 19.4591 23.5225C19.7074 23.6354 19.9731 23.7182 20.2427 23.7882C20.1949 23.933 20.0982 24.0582 20.0016 24.1833C19.9566 24.2416 19.9115 24.3 19.8715 24.3602C19.7755 24.4851 19.6842 24.6127 19.5928 24.7402C19.4018 25.0067 19.2109 25.2731 18.9782 25.5157C18.5218 26.0132 18.0423 26.5106 17.4277 26.8781C17.4057 26.8904 17.3837 26.9028 17.3616 26.9153C17.2039 27.0045 17.0423 27.0959 16.8511 27.1216C16.6559 27.1544 16.4241 27.1643 16.2648 27.0464C16.0675 26.884 15.9827 26.6455 15.9896 26.4176C15.9969 26.1331 16.0992 25.8603 16.2003 25.5904C16.2151 25.551 16.2298 25.5117 16.2442 25.4724Z" fill="#036482"/>
<path d="M39.789 19.7686C40.4695 19.7692 41.1501 19.7686 41.8303 19.7692C41.4471 20.3154 41.0628 20.861 40.6795 21.4075C39.9986 21.4081 39.3181 21.4078 38.6375 21.4075C39.0211 20.8613 39.4047 20.3148 39.789 19.7686Z" fill="#036482"/>
</svg>
